<?xml version="1.0" standalone="no"?>
<!DOCTYPE svg PUBLIC "-//W3C//DTD SVG 20010904//EN"
 "http://www.w3.org/TR/2001/REC-SVG-20010904/DTD/svg10.dtd">
<svg version="1.0" xmlns="http://www.w3.org/2000/svg"
 width="400.000000pt" height="400.000000pt" viewBox="0 0 400.000000 400.000000"
 preserveAspectRatio="xMidYMid meet">

<g transform="translate(0.000000,400.000000) scale(0.100000,-0.100000)"
fill="#000000" stroke="none">
<path d="M500 3992 c0 -16 55 -60 107 -86 55 -27 77 -52 89 -99 4 -19 19 -34
45 -47 63 -33 127 -102 151 -165 12 -31 41 -78 65 -105 25 -28 43 -58 43 -72
0 -13 7 -33 15 -44 8 -10 15 -29 15 -42 0 -13 11 -33 23 -45 13 -12 34 -53 46
-91 12 -38 30 -86 40 -105 10 -20 21 -63 24 -96 3 -33 17 -96 31 -140 20 -63
24 -91 19 -137 -4 -36 -2 -58 4 -58 15 0 24 -98 13 -144 -6 -29 -5 -49 7 -78
12 -29 13 -42 4 -51 -6 -6 -11 -42 -11 -79 0 -38 -7 -85 -15 -105 -8 -20 -15
-66 -15 -105 0 -86 -14 -120 -81 -193 -162 -177 -297 -281 -479 -367 -134 -64
-165 -74 -360 -117 -64 -14 -232 -14 -241 0 -9 15 16 69 34 70 6 0 4 3 -5 7
-15 6 -16 10 -3 37 7 17 30 68 50 115 20 47 64 137 97 200 53 100 86 190 128
350 5 19 10 112 10 206 0 247 -27 383 -115 569 -61 131 -106 200 -177 273
l-53 55 -3 -118 -3 -117 41 -38 c22 -21 40 -46 40 -58 0 -23 -27 -42 -59 -42
-12 0 -21 -4 -21 -10 0 -5 11 -10 23 -10 21 0 27 -10 50 -87 15 -49 33 -117
41 -153 30 -138 28 -287 -2 -174 -16 60 -36 56 -51 -8 -6 -29 -23 -80 -36
-113 l-25 -60 0 -897 c0 -818 1 -898 16 -898 10 0 14 6 11 14 -4 9 2 14 16 13
12 0 51 3 87 7 46 5 61 4 50 -3 -12 -9 -10 -11 13 -11 15 0 27 4 27 9 0 5 16
11 35 13 36 4 49 -7 18 -15 -10 -3 2 -6 27 -7 41 -2 43 -3 15 -10 l-30 -7 38
-7 c20 -5 49 -6 64 -3 31 6 55 -1 47 -14 -5 -8 36 -14 61 -9 5 1 7 -2 3 -6 -5
-4 2 -12 13 -18 14 -7 48 -70 100 -186 44 -96 90 -199 104 -227 l25 -53 1630
0 1630 0 0 823 0 822 -33 22 c-31 21 -138 66 -203 84 -22 6 -44 27 -71 67 -92
131 -133 243 -170 467 -27 167 -26 229 3 204 35 -29 253 -511 270 -597 31
-154 54 327 25 513 -7 44 -29 150 -48 235 -19 85 -36 160 -37 165 -1 6 -5 16
-9 23 -23 35 113 -25 210 -94 l63 -45 0 171 0 171 -55 82 c-30 45 -68 96 -85
114 -16 18 -30 36 -29 40 0 4 37 26 82 48 l82 40 3 75 3 76 -136 -4 c-166 -5
-176 0 -119 61 77 80 130 161 153 235 7 22 7 32 -1 32 -6 0 -5 7 3 18 7 9 -5
1 -26 -19 -66 -58 -112 -89 -191 -126 -72 -33 -211 -70 -222 -59 -2 3 12 22
32 43 60 61 121 152 154 233 37 89 29 97 -46 47 -28 -19 -84 -45 -124 -58 -40
-13 -74 -24 -76 -25 -1 -1 -11 -51 -22 -113 -10 -61 -21 -115 -25 -120 -3 -5
5 -11 17 -13 14 -2 22 -9 19 -18 -2 -8 -3 -35 -3 -60 0 -25 -5 -48 -11 -52 -6
-3 -12 -19 -15 -35 -2 -15 -8 -31 -15 -35 -41 -25 -443 -28 -637 -4 -253 30
-509 104 -742 213 -171 80 -165 76 -149 105 21 37 90 88 121 88 15 0 71 -16
124 -35 92 -33 175 -58 350 -105 81 -21 109 -22 58 -1 -33 14 -52 47 -52 91 0
17 -5 30 -12 30 -9 0 -10 2 -2 8 6 4 13 44 16 90 5 81 4 82 -19 82 -12 0 -23
-4 -23 -9 0 -5 -12 -35 -27 -67 -32 -70 -43 -51 -14 25 l19 51 -229 0 -229 0
0 -32 c0 -18 7 -46 15 -62 9 -16 14 -30 13 -31 -2 -1 -43 14 -93 34 -80 32
-90 39 -93 64 -3 27 -4 27 -78 27 -41 0 -74 -4 -74 -8 0 -5 14 -28 30 -50 16
-23 30 -44 30 -46 0 -2 -21 -2 -47 1 -66 6 -167 40 -223 74 -26 16 -55 29 -64
29 -15 0 -15 -2 0 -32 9 -18 37 -61 61 -96 25 -35 42 -66 38 -70 -4 -4 -50 -7
-103 -6 -80 0 -110 5 -172 28 -41 15 -94 39 -117 52 -43 25 -93 66 -93 77 0
15 101 -9 154 -35 25 -13 35 -15 30 -6 -6 10 -5 11 7 2 16 -13 59 -1 59 16 0
5 6 10 14 10 8 0 21 14 30 30 l14 30 -369 0 c-203 0 -369 -4 -369 -8z m420
-47 c0 -8 27 -50 59 -92 55 -72 122 -133 179 -163 13 -6 22 -13 20 -16 -9 -8
-166 -43 -224 -50 -55 -6 -63 -4 -68 12 -11 33 -113 134 -135 134 -22 0 -45
30 -55 71 -3 14 -15 36 -26 49 -20 23 -20 25 -4 37 10 7 25 13 33 14 109 3
173 8 178 13 12 12 43 6 43 -9z m788 -68 c2 -12 -3 -17 -17 -17 -12 0 -21 6
-21 13 0 31 32 34 38 4z m-467 -408 c-44 -33 -102 -85 -128 -114 -48 -56 -63
-61 -63 -21 0 13 -9 35 -20 49 -11 14 -18 32 -14 40 3 8 -6 28 -20 44 l-25 30
122 6 c67 4 138 11 157 16 73 19 71 10 -9 -50z m1218 -19 c34 -6 78 -17 98
-24 21 -7 43 -11 49 -9 14 5 87 -94 79 -107 -3 -5 3 -18 15 -30 11 -11 20 -26
20 -32 0 -9 -4 -8 -11 2 -8 11 -9 9 -3 -10 4 -14 7 -31 7 -39 0 -10 3 -9 13 3
10 14 11 6 9 -41 -3 -39 -1 -53 6 -43 7 10 8 -1 4 -35 -3 -34 -2 -43 4 -30 6
15 8 9 7 -25 0 -25 -5 -48 -10 -51 -10 -7 0 -29 13 -29 5 0 12 10 17 23 14 42
16 -65 1 -136 -17 -82 -6 -78 23 9 24 70 31 72 50 9 7 -22 16 -44 20 -50 3 -5
6 -41 6 -80 l-1 -70 -125 -32 c-69 -17 -144 -32 -168 -32 -54 -1 -172 -30
-172 -43 0 -20 -20 5 -29 35 l-9 32 -1 -31 c-2 -57 10 -94 30 -94 18 0 18 -1
-1 -32 -25 -41 -25 -58 -1 -58 26 0 51 -10 51 -21 0 -5 -7 -9 -16 -9 -9 0 7
-19 37 -45 41 -35 59 -44 88 -44 68 1 101 -11 101 -37 0 -12 -4 -26 -10 -29
-5 -3 -10 -14 -9 -23 0 -11 3 -12 6 -4 8 21 19 13 21 -18 1 -17 -2 -30 -8 -30
-5 0 -10 5 -10 10 0 26 -20 6 -26 -26 -3 -19 -16 -44 -27 -55 -11 -10 -17 -22
-13 -26 4 -4 11 -1 15 6 5 7 14 11 20 7 7 -4 13 8 17 32 5 32 10 39 25 35 10
-3 21 -15 25 -27 3 -11 13 -29 22 -38 9 -12 11 -18 4 -18 -7 0 -12 -7 -12 -16
0 -18 -136 -167 -157 -172 -14 -4 -18 -22 -5 -22 4 0 16 7 26 15 10 8 23 12
27 9 5 -3 9 2 9 10 0 14 40 50 47 42 2 -2 -10 -19 -26 -37 -17 -18 -31 -38
-31 -44 0 -5 -4 -3 -10 5 -13 21 -22 7 -22 -34 0 -33 -5 -38 -73 -81 -154 -96
-268 -133 -310 -102 -25 19 -21 23 44 40 l53 13 -95 16 c-56 9 -126 29 -175
51 -45 19 -82 33 -82 31 0 -2 17 -19 38 -39 32 -30 34 -34 16 -35 -22 0 -124
85 -190 160 -70 79 -67 72 -48 134 l18 56 15 -33 c9 -17 43 -59 76 -93 33 -33
46 -44 29 -25 -66 75 -95 123 -83 138 9 11 9 12 -4 8 -21 -9 -30 24 -31 113
-1 60 1 71 14 66 196 -77 456 -161 467 -150 7 7 6 7 -117 41 -229 64 -366 126
-377 170 -24 95 -32 156 -33 230 l0 90 43 -44 c39 -41 124 -91 155 -91 29 0
-1 -20 -31 -21 -30 0 -30 -1 13 -14 39 -13 49 -13 75 -1 47 22 100 29 124 17
25 -14 27 -33 6 -65 -43 -66 -38 -93 34 -168 40 -44 54 -48 46 -15 -4 13 0 50
9 83 8 32 22 106 31 164 9 58 23 122 31 143 18 48 18 57 -1 30 l-15 -21 -30
28 c-17 16 -59 45 -94 66 -41 24 -67 46 -70 60 -8 28 8 177 28 270 31 144 108
311 183 394 55 61 75 65 212 40z m-518 -607 c9 -25 -2 -31 -19 -10 -15 17 -22
64 -14 85 4 13 8 8 15 -18 5 -19 13 -45 18 -57z m-38 -34 c28 -15 67 -50 67
-61 0 -4 -9 -8 -19 -8 -27 0 -51 -38 -50 -75 l2 -30 6 34 c3 19 12 36 19 39
11 3 12 0 3 -16 -14 -26 12 -56 40 -49 11 3 22 0 26 -5 3 -7 1 -8 -6 -4 -7 4
-10 2 -9 -5 2 -7 -8 -16 -22 -20 -21 -6 -22 -7 -4 -8 28 -1 64 34 71 70 l6 30
29 -28 c42 -40 58 -83 48 -128 -5 -21 -13 -42 -20 -49 -6 -6 -44 -12 -85 -14
-65 -4 -82 -1 -128 21 -28 15 -78 53 -111 86 l-58 59 12 54 c19 85 20 87 48
103 32 17 105 19 135 4z m87 -19 c0 -5 -2 -10 -4 -10 -3 0 -8 5 -11 10 -3 6
-1 10 4 10 6 0 11 -4 11 -10z m865 -203 c35 -20 40 -27 43 -64 3 -39 -5 -81
-23 -125 -15 -37 13 -16 30 22 21 47 35 52 35 13 0 -45 -36 -92 -87 -115 -60
-26 -161 -35 -205 -18 -138 55 -198 97 -198 140 0 40 75 99 158 125 21 6 23 5
13 -13 -16 -30 -13 -78 5 -96 8 -9 18 -16 22 -16 3 0 1 5 -6 12 -7 7 -12 21
-12 32 0 16 3 17 12 8 16 -16 55 -15 61 1 7 22 -5 48 -27 57 -20 8 -20 9 -1 9
12 1 28 -11 37 -26 16 -26 17 -26 18 -6 0 12 -11 30 -25 41 l-25 20 37 10 c61
16 95 13 138 -11z m94 -331 c-30 -97 -117 -292 -125 -283 -4 3 -1 20 5 38 15
42 10 45 -14 8 -11 -16 -23 -29 -26 -29 -4 0 -10 26 -14 58 -6 46 -9 53 -16
35 -5 -13 -13 -23 -18 -23 -6 0 -8 -8 -5 -17 3 -10 -4 -3 -16 15 -22 32 -49
131 -50 180 0 20 5 22 55 22 32 0 76 9 107 21 122 48 123 49 127 32 2 -9 -3
-35 -10 -57z m-179 -238 c0 -26 -6 -36 -27 -46 -34 -15 -51 -1 -31 27 8 12 17
18 21 15 3 -3 10 4 17 15 15 29 20 26 20 -11z m-64 -76 c1 -20 -7 -27 -28 -23
-12 2 -10 -17 2 -24 6 -3 10 -1 10 4 0 6 5 11 11 11 8 0 8 -5 -1 -15 -7 -8
-16 -12 -21 -9 -5 3 -16 -2 -25 -11 -9 -9 -19 -13 -23 -10 -3 4 2 11 12 16 9
6 17 15 17 21 0 6 8 20 18 31 9 11 11 17 5 13 -14 -8 -18 6 -6 18 12 12 28 0
29 -22z m220 -67 c3 -14 3 -36 0 -50 -7 -29 -133 -158 -218 -225 -31 -25 -57
-51 -58 -59 0 -12 3 -11 18 1 9 9 40 27 67 41 28 14 81 46 119 71 38 25 70 46
71 46 1 0 2 -26 3 -57 1 -32 5 -100 8 -152 6 -89 7 -93 21 -68 7 15 20 27 28
27 21 0 72 -68 78 -104 4 -27 -2 -37 -47 -81 -50 -50 -219 -185 -229 -185 -3
0 -27 38 -52 84 -25 46 -57 95 -71 109 -24 24 -26 31 -20 89 5 58 4 60 -6 23
-12 -46 -17 -327 -6 -366 7 -25 4 -28 -45 -50 -72 -32 -163 -32 -239 0 -59 24
-70 39 -43 61 37 30 138 219 324 600 76 157 90 173 212 240 66 36 77 37 85 5z
m-2859 -1311 c-3 -3 -12 -4 -19 -1 -8 3 -5 6 6 6 11 1 17 -2 13 -5z"/>
<path d="M2231 3106 c-14 -36 -31 -135 -31 -182 0 -50 20 -111 53 -159 l24
-36 7 38 c10 61 7 193 -4 193 -5 0 -10 21 -10 48 0 63 -11 122 -22 122 -4 0
-13 -11 -17 -24z"/>
<path d="M2281 3054 c0 -11 3 -14 6 -6 3 7 2 16 -1 19 -3 4 -6 -2 -5 -13z"/>
<path d="M2572 3036 c-18 -19 -32 -39 -32 -45 0 -6 -7 -11 -15 -11 -9 0 -18
-7 -21 -15 -4 -8 -9 -13 -13 -11 -3 2 -6 -9 -7 -25 -1 -16 2 -29 5 -28 9 0
106 120 120 147 17 32 0 27 -37 -12z"/>
<path d="M2444 2885 c-29 -60 -28 -86 2 -36 10 17 21 31 24 31 4 0 7 14 7 30
0 17 -2 30 -3 30 -1 0 -15 -25 -30 -55z"/>
<path d="M2540 2898 c-42 -54 -52 -72 -22 -38 29 32 65 80 59 80 -2 0 -19 -19
-37 -42z"/>
<path d="M2751 2924 c0 -11 3 -14 6 -6 3 7 2 16 -1 19 -3 4 -6 -2 -5 -13z"/>
<path d="M2351 2594 c0 -11 3 -14 6 -6 3 7 2 16 -1 19 -3 4 -6 -2 -5 -13z"/>
<path d="M2257 2577 c-2 -7 1 -21 8 -30 16 -22 85 -21 85 1 0 7 -4 11 -9 7 -5
-3 -25 4 -44 15 -27 16 -36 18 -40 7z"/>
<path d="M1792 2248 c6 -18 28 -21 28 -4 0 9 -7 16 -16 16 -9 0 -14 -5 -12
-12z"/>
<path d="M2281 2094 c0 -11 3 -14 6 -6 3 7 2 16 -1 19 -3 4 -6 -2 -5 -13z"/>
<path d="M2260 2061 c8 -6 28 -11 44 -11 39 0 31 6 -19 14 -29 5 -36 4 -25 -3z"/>
<path d="M2353 2043 c9 -2 23 -2 30 0 6 3 -1 5 -18 5 -16 0 -22 -2 -12 -5z"/>
<path d="M2408 2033 c6 -2 18 -2 25 0 6 3 1 5 -13 5 -14 0 -19 -2 -12 -5z"/>
<path d="M2585 2030 l-50 -6 50 -5 c28 -3 64 -2 80 1 l30 6 -30 5 c-16 2 -52
2 -80 -1z"/>
<path d="M1920 1846 c0 -3 9 -10 20 -16 11 -6 20 -8 20 -6 0 3 -9 10 -20 16
-11 6 -20 8 -20 6z"/>
<path d="M2450 1790 c-19 -11 -31 -19 -27 -20 11 0 67 29 67 35 0 7 -1 7 -40
-15z"/>
<path d="M2375 1760 c-13 -6 -15 -9 -5 -9 8 0 22 4 30 9 18 12 2 12 -25 0z"/>
<path d="M2716 2485 c-3 -8 -1 -15 4 -15 6 0 10 7 10 15 0 8 -2 15 -4 15 -2 0
-6 -7 -10 -15z"/>
<path d="M2747 2150 c-28 -81 -30 -110 -2 -43 9 20 14 41 11 47 -2 6 -6 4 -9
-4z"/>
<path d="M2795 3958 c22 -141 63 -236 126 -293 21 -18 35 -36 31 -39 -3 -3 13
-6 35 -6 40 0 154 48 169 71 4 7 -3 5 -17 -4 -36 -26 -41 -20 -15 17 26 38 51
131 60 216 l5 55 -12 -53 c-12 -52 -27 -61 -27 -18 0 12 -5 38 -11 59 l-10 37
-170 0 -171 0 7 -42z"/>
<path d="M3231 3964 c0 -11 3 -14 6 -6 3 7 2 16 -1 19 -3 4 -6 -2 -5 -13z"/>
<path d="M370 3926 c0 -2 30 -27 68 -54 37 -27 101 -79 142 -117 l75 -67 -81
78 c-70 69 -204 174 -204 160z"/>
<path d="M70 3855 c0 -6 56 -35 67 -35 10 0 -27 25 -49 33 -10 4 -18 4 -18 2z"/>
<path d="M20 3748 c13 -14 70 -38 70 -29 0 5 -8 11 -17 14 -10 2 -27 8 -38 12
-11 5 -18 6 -15 3z"/>
<path d="M1938 3718 c6 -6 18 -8 28 -6 14 3 12 5 -9 10 -19 3 -25 2 -19 -4z"/>
<path d="M2819 3670 c13 -11 28 -20 35 -20 6 1 0 10 -13 20 -13 11 -28 20 -35
20 -6 -1 0 -10 13 -20z"/>
<path d="M2758 3643 c7 -3 16 -2 19 1 4 3 -2 6 -13 5 -11 0 -14 -3 -6 -6z"/>
<path d="M2818 3633 c12 -2 32 -2 45 0 12 2 2 4 -23 4 -25 0 -35 -2 -22 -4z"/>
<path d="M851 3420 c12 -22 24 -38 26 -36 4 4 -37 76 -44 76 -2 0 6 -18 18
-40z"/>
<path d="M230 3391 c0 -6 4 -13 10 -16 6 -3 7 1 4 9 -7 18 -14 21 -14 7z"/>
<path d="M597 3092 c3 -12 9 -25 14 -28 14 -8 11 10 -6 32 -13 18 -14 18 -8
-4z"/>
<path d="M760 3061 c0 -6 4 -13 10 -16 6 -3 7 1 4 9 -7 18 -14 21 -14 7z"/>
<path d="M481 3045 c0 -5 11 -30 24 -55 13 -25 24 -40 24 -35 0 6 -11 30 -24
55 -13 25 -24 41 -24 35z"/>
<path d="M620 3045 c0 -5 5 -17 10 -25 5 -8 10 -10 10 -5 0 6 -5 17 -10 25 -5
8 -10 11 -10 5z"/>
<path d="M971 2664 c0 -11 3 -14 6 -6 3 7 2 16 -1 19 -3 4 -6 -2 -5 -13z"/>
<path d="M442 2600 c0 -14 2 -19 5 -12 2 6 2 18 0 25 -3 6 -5 1 -5 -13z"/>
<path d="M523 2445 c0 -38 2 -53 4 -32 2 20 2 52 0 70 -2 17 -4 1 -4 -38z"/>
<path d="M396 2234 c-4 -20 -5 -38 -3 -40 3 -3 8 11 11 32 4 20 5 38 3 40 -3
3 -8 -11 -11 -32z"/>
<path d="M591 2174 c0 -11 3 -14 6 -6 3 7 2 16 -1 19 -3 4 -6 -2 -5 -13z"/>
<path d="M711 2124 c0 -11 3 -14 6 -6 3 7 2 16 -1 19 -3 4 -6 -2 -5 -13z"/>
<path d="M562 2083 c-15 -48 -8 -55 8 -8 7 20 10 38 8 41 -3 2 -10 -13 -16
-33z"/>
<path d="M701 2084 c0 -11 3 -14 6 -6 3 7 2 16 -1 19 -3 4 -6 -2 -5 -13z"/>
<path d="M821 2034 c0 -11 3 -14 6 -6 3 7 2 16 -1 19 -3 4 -6 -2 -5 -13z"/>
<path d="M0 235 c0 -4 44 -58 98 -121 l97 -113 63 -1 c52 0 61 2 50 13 -26 25
-85 57 -93 49 -5 -4 -5 -2 -2 4 3 6 -8 19 -26 29 -18 10 -67 48 -109 83 -43
35 -78 61 -78 57z"/>
</g>
</svg>
